<svg width="32" height="32" viewBox="0 0 32 32" fill="none" xmlns="http://www.w3.org/2000/svg">
<path d="M22.49 23.71H14.95C14.4999 23.7271 14.0515 23.6466 13.6354 23.474C13.2194 23.3014 12.8457 23.0408 12.54 22.71C11.5005 21.5723 10.6436 20.2803 10 18.88C8.7 16.28 7.46 13.66 6.18 11.06C5.79 10.26 5.36 9.5 4.9 8.74C4.24281 7.44494 3.23883 6.35787 2 5.6H5.57C7.91554 5.62311 10.2558 5.82705 12.57 6.21C13.982 6.42338 15.3123 7.00669 16.4259 7.90069C17.5394 8.79469 18.3965 9.96751 18.91 11.3C19.8265 13.6922 20.5521 16.1532 21.08 18.66C21.3786 20.3865 21.851 22.0785 22.49 23.71V23.71ZM28.1 26.38C27.4038 26.3381 26.7454 26.0492 26.2432 25.5653C25.7409 25.0813 25.4278 24.4341 25.36 23.74C25.2182 22.1108 25.1714 20.4747 25.22 18.84C25.2174 16.3012 25.0135 13.7666 24.61 11.26C24.536 10.5262 24.2473 9.83054 23.78 9.26H26.43C26.97 9.26 27.16 9.63 27.32 10.04C27.694 11.0837 27.9228 12.1739 28 13.28C28.29 16 28.31 18.73 28.33 21.46C28.3098 21.8431 28.3098 22.2269 28.33 22.61C28.42 23.39 28.73 23.71 29.5 23.69C30 23.69 30 23.63 30 23.63V26.32C29.3708 26.41 28.7336 26.4301 28.1 26.38V26.38Z" fill="#76C310"/>
</svg>
